<?xml version="1.0" encoding="UTF-8" standalone="no"?>
<svg
   xmlns:dc="http://purl.org/dc/elements/1.1/"
   xmlns:cc="http://creativecommons.org/ns#"
   xmlns:rdf="http://www.w3.org/1999/02/22-rdf-syntax-ns#"
   xmlns:svg="http://www.w3.org/2000/svg"
   xmlns="http://www.w3.org/2000/svg"
   xmlns:sodipodi="http://sodipodi.sourceforge.net/DTD/sodipodi-0.dtd"
   xmlns:inkscape="http://www.inkscape.org/namespaces/inkscape"
   width="498.9pt"
   version="1.1"
   height="708.66pt"
   viewBox="0 0 498.9 708.66"
   id="svg2"
   inkscape:version="0.48.3.1 r9886"
   sodipodi:docname="Welcome2WP_English_PROD-page020.svg">
  <metadata
     id="metadata1580">
    <rdf:RDF>
      <cc:Work
         rdf:about="">
        <dc:format>image/svg+xml</dc:format>
        <dc:type
           rdf:resource="http://purl.org/dc/dcmitype/StillImage" />
      </cc:Work>
    </rdf:RDF>
  </metadata>
  <sodipodi:namedview
     pagecolor="#ffffff"
     bordercolor="#666666"
     borderopacity="1"
     objecttolerance="10"
     gridtolerance="10"
     guidetolerance="10"
     inkscape:pageopacity="0"
     inkscape:pageshadow="2"
     inkscape:window-width="1366"
     inkscape:window-height="687"
     id="namedview1578"
     showgrid="false"
     inkscape:zoom="1.0656733"
     inkscape:cx="310.984"
     inkscape:cy="440.70123"
     inkscape:window-x="0"
     inkscape:window-y="41"
     inkscape:window-maximized="1"
     inkscape:current-layer="g61" />
  <title
     id="title4">Welcome to Wikipedia (English Version)</title>
  <defs
     id="defs6">
    <path
       id="GlAkhilan65"
       d="M5.15625 10 L4.49703 8.08109 L1.96297 8.08109 L1.29891 10 L0.542031 10 L2.77344 3.73531 L3.74031 3.73531 L5.94734 10 L5.15625 10 L5.15625 10 Z M3.24703 4.38969 L2.12406 7.50484 L4.30672 7.50484 L3.24703 4.38969 Z" />
    <path
       id="GlAkhilan114"
       d="M1.23047 7.66594 L1.23047 10 L0.600625 10 L0.600625 5.48344 L1.17188 5.48344 L1.17188 6.45016 C1.17188 6.45016 1.81641 5.39547 2.51953 5.39547 C2.51953 5.39547 2.61234 5.39547 2.75875 5.41016 L2.75875 5.95703 C2.75875 5.95703 1.9825 5.97656 1.60641 6.44047 C1.60641 6.44047 1.23047 6.90422 1.23047 7.66594 Z" />
    <path
       id="GlAkhilan101"
       d="M1.23531 7.89547 C1.23531 7.89547 1.25 8.61328 1.60156 9.08203 C1.60156 9.08203 1.95312 9.55078 2.66609 9.55078 C2.66609 9.55078 3.60844 9.55078 3.92578 8.65234 L4.57516 8.65234 C4.57516 8.65234 4.24812 10.1123 2.64156 10.1123 C2.64156 10.1123 1.62594 10.1123 1.10344 9.45312 C1.10344 9.45312 0.581094 8.79391 0.581094 7.80266 C0.581094 7.80266 0.581094 6.81156 1.10844 6.10359 C1.10844 6.10359 1.63578 5.39547 2.59281 5.39547 C2.59281 5.39547 3.54984 5.39547 4.10891 5.94234 C4.10891 5.94234 4.66797 6.48922 4.68266 7.89547 L1.23531 7.89547 L1.23531 7.89547 Z M3.97469 7.41703 C3.97469 7.41703 3.96969 6.81641 3.61813 6.38672 C3.61813 6.38672 3.26656 5.95703 2.64156 5.95703 C2.64156 5.95703 2.01656 5.95703 1.66016 6.38922 C1.66016 6.38922 1.30375 6.82125 1.25 7.41703 L3.97469 7.41703 Z" />
    <path
       id="GlAkhilan121"
       d="M2.32906 10.8594 C2.32906 10.8594 1.98734 11.7677 1.18656 11.7677 C1.18656 11.7677 0.947344 11.7677 0.742188 11.67 L0.742188 11.1231 C0.742188 11.1231 0.9375 11.1572 1.08406 11.1572 C1.08406 11.1572 1.55766 11.1572 1.72859 10.6739 L2.01172 9.87297 L0.46875 5.50781 L1.14266 5.50781 L2.35359 9.02344 L3.67188 5.50781 L4.35547 5.50781 L2.32906 10.8594 Z" />
    <path
       id="GlAkhilan111"
       d="M2.61234 10.1123 C2.61234 10.1123 1.59672 10.1123 1.08891 9.45813 C1.08891 9.45813 0.581094 8.80375 0.581094 7.75875 C0.581094 7.75875 0.581094 6.71391 1.08391 6.05469 C1.08391 6.05469 1.58688 5.39547 2.61234 5.39547 C2.61234 5.39547 3.63766 5.39547 4.13563 6.05469 C4.13563 6.05469 4.63375 6.71391 4.63375 7.76859 C4.63375 7.76859 4.63375 8.82328 4.13078 9.46781 C4.13078 9.46781 3.62797 10.1123 2.61234 10.1123 L2.61234 10.1123 Z M2.6075 5.95703 C2.6075 5.95703 1.23531 5.95703 1.23531 7.74906 C1.23531 7.74906 1.23531 9.55078 2.59766 9.55078 C2.59766 9.55078 3.98438 9.55078 3.98438 7.77344 C3.98438 7.77344 3.98438 5.95703 2.6075 5.95703 Z" />
    <path
       id="GlAkhilan117"
       d="M3.63281 10 L3.63281 9.16984 C3.63281 9.16984 2.93953 10.1123 2.03125 10.1123 C2.03125 10.1123 1.40141 10.1123 1.00094 9.81203 C1.00094 9.81203 0.600625 9.51172 0.600625 8.94047 L0.600625 5.50781 L1.22078 5.50781 L1.22078 8.65234 C1.22078 8.65234 1.22078 9.09172 1.50391 9.34328 C1.50391 9.34328 1.78719 9.59469 2.24125 9.59469 C2.24125 9.59469 2.88094 9.59469 3.22266 9.12359 C3.22266 9.12359 3.56453 8.65234 3.56453 8.01266 L3.56453 5.50781 L4.18453 5.50781 L4.18453 10 L3.63281 10 Z" />
    <path
       id="GlAkhilan110"
       d="M3.545 10 L3.545 6.87984 C3.545 6.87984 3.545 6.42578 3.26656 6.17922 C3.26656 6.17922 2.98828 5.93266 2.53422 5.93266 C2.53422 5.93266 1.87016 5.93266 1.54781 6.39891 C1.54781 6.39891 1.22562 6.86516 1.22562 7.51953 L1.22562 10 L0.600625 10 L0.600625 5.50781 L1.16703 5.50781 L1.16703 6.42578 C1.16703 6.42578 1.82625 5.39547 2.75391 5.39547 C2.75391 5.39547 3.38875 5.39547 3.77687 5.69578 C3.77687 5.69578 4.165 5.99609 4.165 6.59172 L4.165 10 L3.545 10 Z" />
    <path
       id="GlAkhilan102"
       d="M1.15719 4.73625 C1.15719 4.73625 1.15719 3.75 2.21188 3.75 C2.21188 3.75 2.39266 3.75 2.57328 3.77438 L2.57328 4.27734 L2.36813 4.27734 C2.36813 4.27734 1.79203 4.27734 1.79203 4.79484 L1.79203 5.53703 L2.57328 5.53703 L2.57328 6.02531 L1.79203 6.02531 L1.79203 10 L1.15719 10 L1.15719 6.02531 L0.517656 6.02531 L0.517656 5.53703 L1.15719 5.53703 L1.15719 4.73625 Z" />
    <path
       id="GlAkhilan116"
       d="M1.98734 10.1123 C1.98734 10.1123 1.14266 10.1123 1.14266 9.45312 L1.14266 5.99609 L0.488281 5.99609 L0.488281 5.50781 L1.14266 5.50781 L1.14266 4.24797 L1.76766 4.24797 L1.76766 5.50781 L2.55375 5.50781 L2.55375 5.99609 L1.76766 5.99609 L1.76766 9.13078 C1.76766 9.13078 1.76766 9.57516 2.24125 9.57516 C2.24125 9.57516 2.43172 9.57516 2.55375 9.56547 L2.55375 10.0684 C2.55375 10.0684 2.22656 10.1123 1.98734 10.1123 Z" />
    <path
       id="GlAkhilan104"
       d="M3.55469 10 L3.55469 6.87016 C3.55469 6.87016 3.55469 6.42578 3.27141 6.17922 C3.27141 6.17922 2.98828 5.93266 2.53422 5.93266 C2.53422 5.93266 1.87984 5.93266 1.55031 6.39406 C1.55031 6.39406 1.22078 6.85547 1.22078 7.51953 L1.22078 10 L0.600625 10 L0.600625 3.75 L1.22078 3.75 L1.22078 6.25484 C1.22078 6.25484 1.89453 5.39547 2.76375 5.39547 C2.76375 5.39547 3.39844 5.39547 3.78656 5.69344 C3.78656 5.69344 4.17484 5.99125 4.17484 6.57719 L4.17484 10 L3.55469 10 Z" />
    <path
       id="GlAkhilan49"
       d="M2.10938 10 L2.10938 5.50781 L0.639687 5.50781 L0.639687 5.04875 C0.639687 5.04875 1.57719 4.95609 1.84813 4.68516 C1.84813 4.68516 2.11922 4.41406 2.12406 3.75 L2.81734 3.75 L2.81734 10 L2.10938 10 Z" />
    <path
       id="GlAkhilan50"
       d="M3.10062 7.62688 C3.10062 7.62688 2.04594 8.27141 1.7675 8.55469 C1.7675 8.55469 1.48922 8.83781 1.45516 9.38969 L4.80953 9.38969 L4.80953 10 L0.649375 10 C0.649375 10 0.688438 8.94047 1.06922 8.40094 C1.06922 8.40094 1.45016 7.86125 2.41219 7.31438 L3.25687 6.83594 C3.25687 6.83594 3.99422 6.41594 3.99422 5.48828 C3.99422 5.48828 3.99422 4.92188 3.63031 4.56062 C3.63031 4.56062 3.26656 4.19922 2.70016 4.19922 C2.70016 4.19922 1.47953 4.19922 1.34766 5.76172 L0.639687 5.76172 C0.639687 5.76172 0.722656 3.63766 2.71969 3.63766 C2.71969 3.63766 3.60359 3.63766 4.17484 4.12844 C4.17484 4.12844 4.74609 4.61906 4.74609 5.59563 C4.74609 5.59563 4.74609 6.62109 3.91109 7.13375 L3.10062 7.62688 Z" />
    <path
       id="GlAkhilan109"
       d="M5.92281 10 L5.92281 6.89453 C5.92281 6.89453 5.92281 5.93266 5.02438 5.93266 C5.02438 5.93266 4.52156 5.93266 4.20172 6.30625 C4.20172 6.30625 3.88187 6.67969 3.88187 7.18266 L3.88187 10 L3.26172 10 L3.26172 6.89453 C3.26172 6.89453 3.26172 5.93266 2.35844 5.93266 C2.35844 5.93266 1.87016 5.93266 1.55031 6.30625 C1.55031 6.30625 1.23047 6.67969 1.23047 7.18266 L1.23047 10 L0.610313 10 L0.610313 5.50781 L1.17188 5.50781 L1.17188 6.29391 C1.17188 6.29391 1.81156 5.39547 2.64156 5.39547 C2.64156 5.39547 3.47172 5.39547 3.86234 6.13281 C3.86234 6.13281 4.46781 5.39547 5.27828 5.39547 C5.27828 5.39547 6.54297 5.39547 6.54297 6.61625 L6.54297 10 L5.92281 10 Z" />
    <path
       id="GlAkhilan105"
       d="M0.590781 4.55563 L0.590781 3.75 L1.22078 3.75 L1.22078 4.55563 L0.590781 4.55563 L0.590781 4.55563 Z M0.600625 10 L0.600625 5.52734 L1.22078 5.52734 L1.22078 10 L0.600625 10 Z" />
    <path
       id="GlAkhilan108"
       d="M0.610313 10 L0.610313 3.75 L1.23047 3.75 L1.23047 10 L0.610313 10 Z" />
    <path
       id="GlAkhilan112"
       d="M2.73922 5.39547 C2.73922 5.39547 3.69141 5.39547 4.15281 6.07422 C4.15281 6.07422 4.61422 6.75297 4.61422 7.75391 C4.61422 7.75391 4.61422 8.75484 4.13563 9.43359 C4.13563 9.43359 3.65719 10.1123 2.76859 10.1123 C2.76859 10.1123 1.87984 10.1123 1.24031 9.34563 L1.24031 11.7677 L0.610313 11.7677 L0.610313 5.50781 L1.17188 5.50781 L1.17188 6.32812 C1.17188 6.32812 1.78719 5.39547 2.73922 5.39547 L2.73922 5.39547 Z M3.96484 7.75875 C3.96484 7.75875 3.96484 7.05078 3.63516 6.50391 C3.63516 6.50391 3.30563 5.95703 2.59766 5.95703 C2.59766 5.95703 1.88484 5.95703 1.5625 6.50391 C1.5625 6.50391 1.24031 7.05078 1.24031 7.84172 C1.24031 7.84172 1.24031 8.63281 1.63578 9.09187 C1.63578 9.09187 2.03125 9.55078 2.57812 9.55078 C2.57812 9.55078 3.26656 9.55078 3.61563 9.00641 C3.61563 9.00641 3.96484 8.46187 3.96484 7.75875 Z" />
    <path
       id="GlAkhilan119"
       d="M5.08797 10 L4.34578 10 L3.37406 6.21578 L2.44625 10 L1.71391 10 L0.42 5.50781 L1.10359 5.50781 L2.08984 9.24797 L2.99812 5.50781 L3.80375 5.50781 L4.75094 9.24797 L5.69828 5.50781 L6.40625 5.50781 L5.08797 10 Z" />
    <path
       id="GlAkhilan115"
       d="M4.20406 8.78422 C4.20406 8.78422 4.20406 10.1123 2.3975 10.1123 C2.3975 10.1123 0.595781 10.1123 0.551719 8.67672 L1.22078 8.67672 C1.22078 8.67672 1.36234 9.55078 2.45125 9.55078 C2.45125 9.55078 3.54 9.55078 3.54 8.79875 C3.54 8.79875 3.54 8.30078 2.65625 8.07609 L1.65047 7.82219 C1.65047 7.82219 0.668906 7.57328 0.668906 6.68453 C0.668906 6.68453 0.668906 5.98625 1.15234 5.69094 C1.15234 5.69094 1.63578 5.39547 2.38281 5.39547 C2.38281 5.39547 3.97953 5.39547 4.01859 6.66984 L3.34469 6.66984 C3.34469 6.66984 3.28609 5.95703 2.30953 5.95703 C2.30953 5.95703 1.32812 5.95703 1.32812 6.66984 C1.32812 6.66984 1.32812 7.12406 2.33891 7.3975 L3.16406 7.62203 C3.16406 7.62203 4.20406 7.90531 4.20406 8.78422 Z" />
    <path
       id="GlAkhilan87"
       d="M6.59672 10 L5.79594 10 L4.29688 4.62406 L2.83203 10 L2.02156 10 L0.429688 3.75 L1.22078 3.75 L2.45609 9.09172 L3.90625 3.75 L4.6875 3.75 L6.18656 9.09172 L7.38766 3.75 L8.17875 3.75 L6.59672 10 Z" />
    <path
       id="GlAkhilan107"
       d="M3.58891 10 L2.00203 7.48531 L1.22078 8.24219 L1.22078 10 L0.600625 10 L0.600625 3.75 L1.22078 3.75 L1.22078 7.54391 L3.26656 5.52734 L4.05766 5.52734 L2.50984 7.04094 L4.36531 10 L3.58891 10 Z" />
    <path
       id="GlAkhilan100"
       d="M4.09187 10 L4.09187 9.20406 C4.09187 9.20406 3.44734 10.1123 2.50984 10.1123 C2.50984 10.1123 1.57234 10.1123 1.09125 9.42391 C1.09125 9.42391 0.610313 8.73531 0.610313 7.74406 C0.610313 7.74406 0.610313 6.75297 1.09859 6.07422 C1.09859 6.07422 1.58688 5.39547 2.51953 5.39547 C2.51953 5.39547 3.45219 5.39547 4.00875 6.22063 L4.00875 3.75 L4.63375 3.75 L4.63375 10 L4.09187 10 L4.09187 10 Z M2.66109 5.95703 C2.66109 5.95703 1.95312 5.95703 1.60891 6.50391 C1.60891 6.50391 1.26469 7.05078 1.26469 7.75875 C1.26469 7.75875 1.26469 8.48141 1.60641 9.01609 C1.60641 9.01609 1.94828 9.55078 2.64656 9.55078 C2.64656 9.55078 3.34969 9.55078 3.67922 9.01125 C3.67922 9.01125 4.00875 8.47172 4.00875 7.75875 C4.00875 7.75875 4.00875 7.04594 3.69141 6.50156 C3.69141 6.50156 3.37406 5.95703 2.66109 5.95703 Z" />
    <path
       id="GlAkhilan97"
       d="M4.35547 10.1123 C4.35547 10.1123 3.71578 10.1123 3.62312 9.37984 C3.62312 9.37984 2.76375 10.1123 2.04109 10.1123 C2.04109 10.1123 1.31844 10.1123 0.908281 9.78281 C0.908281 9.78281 0.498125 9.45312 0.498125 8.81344 C0.498125 8.81344 0.498125 8.21281 0.849688 7.92234 C0.849688 7.92234 1.20125 7.63187 2.26078 7.47063 C2.26078 7.47063 3.09078 7.34859 3.35203 7.25344 C3.35203 7.25344 3.61328 7.15813 3.61328 6.68938 C3.61328 6.68938 3.61328 5.95703 2.54391 5.95703 C2.54391 5.95703 1.47469 5.95703 1.3575 6.75781 L0.717812 6.75781 C0.717812 6.75781 0.805625 5.39547 2.52438 5.39547 C2.52438 5.39547 4.24313 5.39547 4.24313 6.57719 L4.24313 9.19922 C4.24313 9.19922 4.24313 9.60938 4.70219 9.60938 L4.81453 9.60938 L4.81453 10.0391 C4.81453 10.0391 4.53609 10.1123 4.35547 10.1123 L4.35547 10.1123 Z M3.61328 7.64641 C3.61328 7.64641 3.34969 7.76359 2.90766 7.83203 C2.90766 7.83203 2.46578 7.90031 2.13375 7.96875 C2.13375 7.96875 1.17188 8.17375 1.17188 8.80375 C1.17188 8.80375 1.17188 9.57516 2.14844 9.57516 C2.14844 9.57516 2.97859 9.57516 3.29594 9.18953 C3.29594 9.18953 3.61328 8.80375 3.61328 8.52531 L3.61328 7.64641 Z" />
    <path
       id="GlAkhilan99"
       d="M2.6075 10.1123 C2.6075 10.1123 1.62109 10.1123 1.11078 9.43859 C1.11078 9.43859 0.600625 8.76469 0.600625 7.73438 C0.600625 7.73438 0.600625 6.69922 1.13766 6.04734 C1.13766 6.04734 1.67484 5.39547 2.61719 5.39547 C2.61719 5.39547 4.22359 5.39547 4.39453 6.94328 L3.75984 6.94328 C3.75984 6.94328 3.60844 5.95703 2.6075 5.95703 C2.6075 5.95703 1.86531 5.95703 1.565 6.50391 C1.565 6.50391 1.26469 7.05078 1.26469 7.76859 C1.26469 7.76859 1.26469 8.48625 1.58203 9.01859 C1.58203 9.01859 1.89938 9.55078 2.63672 9.55078 C2.63672 9.55078 3.60359 9.55078 3.81844 8.45703 L4.45312 8.45703 C4.45312 8.45703 4.37016 9.23344 3.88922 9.67297 C3.88922 9.67297 3.40828 10.1123 2.6075 10.1123 Z" />
    <path
       id="GlAkhilan63"
       d="M2.93453 7.14359 C2.93453 7.14359 2.67094 7.3975 2.67094 7.78313 L2.67094 8.17375 L1.98734 8.17375 L1.98734 7.75391 C1.98734 7.75391 1.98734 7.22172 2.54391 6.68453 L3.13969 6.10844 C3.13969 6.10844 3.57422 5.68844 3.57422 5.17578 C3.57422 5.17578 3.57422 4.66797 3.23734 4.39938 C3.23734 4.39938 2.90047 4.13078 2.38281 4.13078 C2.38281 4.13078 1.20609 4.13078 1.18172 5.48344 L0.551719 5.48344 C0.551719 5.48344 0.57625 3.55469 2.43172 3.55469 C2.43172 3.55469 3.2325 3.55469 3.74266 3.97469 C3.74266 3.97469 4.25297 4.39453 4.25297 5.12688 C4.25297 5.12688 4.25297 5.85938 3.80375 6.29875 L2.93453 7.14359 L2.93453 7.14359 Z M1.98734 9.91203 L1.98734 9.12109 L2.67094 9.12109 L2.67094 9.91203 L1.98734 9.91203 Z" />
    <path
       id="GlAkhilan69"
       d="M0.610313 10 L0.610313 3.75 L4.93656 3.75 L4.93656 4.36031 L1.31844 4.36031 L1.31844 6.48922 L4.80953 6.48922 L4.80953 7.09953 L1.31844 7.09953 L1.31844 9.38969 L5.09766 9.38969 L5.09766 10 L0.610313 10 Z" />
    <path
       id="GlAkhilan118"
       d="M2.79781 10 L2.07516 10 L0.488281 5.50781 L1.19625 5.50781 L2.47078 9.34563 L3.81844 5.50781 L4.52156 5.50781 L2.79781 10 Z" />
    <path
       id="GlAkhilan106"
       d="M0.986406 4.55563 L0.986406 3.75 L1.60641 3.75 L1.60641 4.55563 L0.986406 4.55563 L0.986406 4.55563 Z M0.449219 11.7677 C0.449219 11.7677 0.268594 11.7677 0.151406 11.7431 L0.151406 11.2305 C0.151406 11.2305 0.151406 11.2305 0.278281 11.2305 C0.278281 11.2305 0.986406 11.2305 0.986406 10.5958 L0.986406 5.52734 L1.60641 5.52734 L1.60641 10.8692 C1.60641 10.8692 1.60641 11.7677 0.449219 11.7677 Z" />
    <path
       id="GlAkhilan44"
       d="M0.620156 11.2842 L0.620156 11.0547 C0.620156 11.0547 1.03516 11.0205 1.1475 10.6983 C1.1475 10.6983 1.19141 10.5712 1.19141 10 L0.620156 10 L0.620156 9.19922 L1.51375 9.19922 L1.51375 10.1953 C1.51375 10.1953 1.51375 11.25 0.620156 11.2842 Z" />
    <path
       id="GlAkhilan98"
       d="M2.71 10.1123 C2.71 10.1123 1.80172 10.1123 1.18656 9.21391 L1.18656 10 L0.629844 10 L0.629844 3.75 L1.25484 3.75 L1.25484 6.26953 C1.25484 6.26953 1.84578 5.39547 2.77344 5.39547 C2.77344 5.39547 3.70125 5.39547 4.18453 6.05469 C4.18453 6.05469 4.66797 6.71391 4.66797 7.70016 C4.66797 7.70016 4.66797 8.76469 4.15766 9.43859 C4.15766 9.43859 3.6475 10.1123 2.71 10.1123 L2.71 10.1123 Z M4.00391 7.76859 C4.00391 7.76859 4.00391 7.04594 3.66453 6.50156 C3.66453 6.50156 3.32516 5.95703 2.62703 5.95703 C2.62703 5.95703 1.92875 5.95703 1.59172 6.51859 C1.59172 6.51859 1.25484 7.08 1.25484 7.75875 C1.25484 7.75875 1.25484 8.55469 1.62844 9.05281 C1.62844 9.05281 2.00203 9.55078 2.66109 9.55078 C2.66109 9.55078 3.32031 9.55078 3.66203 9.02109 C3.66203 9.02109 4.00391 8.49125 4.00391 7.76859 Z" />
    <path
       id="GlAkhilan46"
       d="M0.620156 10 L0.620156 9.18938 L1.50391 9.18938 L1.50391 10 L0.620156 10 Z" />
    <path
       id="GlAkhilan84"
       d="M3.25687 4.36031 L3.25687 10 L2.54891 10 L2.54891 4.36031 L0.449219 4.36031 L0.449219 3.75 L5.36141 3.75 L5.36141 4.36031 L3.25687 4.36031 Z" />
    <path
       id="GlAkhilan120"
       d="M3.55953 10 L2.36813 8.18359 L1.16703 10 L0.459062 10 L2.05563 7.705 L0.556719 5.50781 L1.25 5.50781 L2.39266 7.21188 L3.545 5.50781 L4.22359 5.50781 L2.71484 7.66594 L4.2725 10 L3.55953 10 Z" />
    <path
       id="GlAkhilan103"
       d="M2.53422 11.7677 C2.53422 11.7677 0.922813 11.7677 0.756875 10.5078 L1.39156 10.5078 C1.39156 10.5078 1.53328 11.2012 2.5 11.2061 C2.5 11.2061 3.45219 11.2061 3.67437 10.7422 C3.67437 10.7422 3.89656 10.2783 3.89656 9.2675 C3.89656 9.2675 3.32516 10.1172 2.44141 10.1172 C2.44141 10.1172 1.55766 10.1172 1.07906 9.42141 C1.07906 9.42141 0.600625 8.72563 0.600625 7.72453 C0.600625 7.72453 0.600625 6.72359 1.12062 6.05953 C1.12062 6.05953 1.64062 5.39547 2.49516 5.39547 C2.49516 5.39547 3.34969 5.39547 3.96969 6.28422 L3.96969 5.50781 L4.54594 5.50781 L4.54594 9.22844 C4.54594 9.22844 4.54594 10.4834 4.13578 11.1255 C4.13578 11.1255 3.72562 11.7677 2.53422 11.7677 L2.53422 11.7677 Z M2.59281 5.95703 C2.59281 5.95703 1.88484 5.95703 1.565 6.49906 C1.565 6.49906 1.24516 7.04094 1.24516 7.75391 C1.24516 7.75391 1.24516 8.46672 1.56 9.00875 C1.56 9.00875 1.875 9.55078 2.58797 9.55078 C2.58797 9.55078 3.30078 9.55078 3.59859 9.02344 C3.59859 9.02344 3.89656 8.49609 3.89656 7.78313 C3.89656 7.78313 3.89656 5.95703 2.59281 5.95703 Z" />
    <path
       id="GlAkhilan70"
       d="M1.31844 4.36031 L1.31844 6.48922 L4.38969 6.48922 L4.38969 7.09953 L1.31844 7.09953 L1.31844 10 L0.610313 10 L0.610313 3.75 L4.81453 3.75 L4.81453 4.36031 L1.31844 4.36031 Z" />
    <path
       id="GlAkhilan83"
       d="M5.36141 8.25688 C5.36141 8.25688 5.36141 9.19438 4.66797 9.65344 C4.66797 9.65344 3.97469 10.1123 2.87109 10.1123 C2.87109 10.1123 1.79688 10.1123 1.13516 9.58984 C1.13516 9.58984 0.473594 9.06734 0.439531 8.02734 L1.11328 8.02734 C1.11328 8.02734 1.13766 9.50188 2.95906 9.50188 C2.95906 9.50188 4.65328 9.50188 4.65328 8.32516 C4.65328 8.32516 4.65328 7.56344 3.4375 7.24609 L1.85547 6.83594 C1.85547 6.83594 0.634844 6.51859 0.634844 5.42484 C0.634844 5.42484 0.634844 4.53125 1.26469 4.08453 C1.26469 4.08453 1.89453 3.63766 2.88578 3.63766 C2.88578 3.63766 3.87703 3.63766 4.49953 4.09187 C4.49953 4.09187 5.12203 4.54594 5.14656 5.46875 L4.4825 5.46875 C4.4825 5.46875 4.43844 4.24797 2.83203 4.24797 C2.83203 4.24797 2.15328 4.24797 1.74797 4.49219 C1.74797 4.49219 1.34281 4.73625 1.34281 5.30266 C1.34281 5.30266 1.34281 6.00578 2.43172 6.29391 L4.04297 6.71875 C4.04297 6.71875 5.36141 7.06547 5.36141 8.25688 Z" />
    <path
       id="GlAkhilan73"
       d="M0.688438 10 L0.688438 3.75 L1.39656 3.75 L1.39656 10 L0.688438 10 Z" />
    <path
       id="GlAkhilan52"
       d="M4.13578 8.56938 L4.13578 10 L3.42781 10 L3.42781 8.56938 L0.703125 8.56938 L0.703125 7.80266 L3.62312 3.75 L4.13578 3.75 L4.13578 7.95891 L5.08797 7.95891 L5.08797 8.56938 L4.13578 8.56938 L4.13578 8.56938 Z M3.42781 4.86813 L1.24031 7.95891 L3.42781 7.95891 L3.42781 4.86813 Z" />
    <path
       id="GlAkhilan57"
       d="M4.74125 6.70406 C4.74125 6.70406 4.74125 10.1075 2.50984 10.1075 C2.50984 10.1075 1.02047 10.1075 0.747031 8.57422 L1.44531 8.57422 C1.44531 8.57422 1.67484 9.54594 2.56844 9.54594 C2.56844 9.54594 4.07719 9.54594 4.07719 6.91406 C4.07719 6.91406 3.34969 7.69531 2.5 7.69531 C2.5 7.69531 1.65047 7.69531 1.12312 7.13375 C1.12312 7.13375 0.595781 6.57219 0.595781 5.68359 C0.595781 5.68359 0.595781 4.79484 1.17188 4.21875 C1.17188 4.21875 1.74812 3.6425 2.65625 3.6425 C2.65625 3.6425 4.74125 3.6425 4.74125 6.70406 L4.74125 6.70406 Z M4.03328 5.71781 C4.03328 5.71781 4.03328 5.06828 3.65969 4.63625 C3.65969 4.63625 3.28609 4.20406 2.66109 4.20406 C2.66109 4.20406 2.03609 4.20406 1.66984 4.62406 C1.66984 4.62406 1.30375 5.04391 1.30375 5.69328 C1.30375 5.69328 1.30375 6.34281 1.65031 6.73594 C1.65031 6.73594 1.99703 7.12891 2.62203 7.12891 C2.62203 7.12891 3.24703 7.12891 3.64016 6.72859 C3.64016 6.72859 4.03328 6.32812 4.03328 5.71781 Z" />
    <path
       id="GlAkhilan78"
       d="M4.72172 10 L1.32812 4.69719 L1.32812 10 L0.620156 10 L0.620156 3.73531 L1.46969 3.73531 L4.90234 9.0625 L4.90234 3.73531 L5.61031 3.73531 L5.61031 10 L4.72172 10 Z" />
    <path
       id="GlAkhilan77"
       d="M5.88875 10 L5.88875 4.38969 L4.00391 10 L3.22266 10 L1.32812 4.38969 L1.32812 10 L0.620156 10 L0.668906 3.75 L1.69922 3.75 L3.62312 9.41891 L5.51266 3.75 L6.59672 3.75 L6.59672 10 L5.88875 10 Z" />
    <path
       id="GlAkhilan51"
       d="M2.68562 10.1075 C2.68562 10.1075 0.791094 10.1075 0.595781 8.17875 L1.30375 8.17875 C1.30375 8.17875 1.41109 9.54594 2.71484 9.54594 C2.71484 9.54594 4.12109 9.54594 4.12109 8.20312 C4.12109 8.20312 4.12109 7.18266 3.22266 7.04094 C3.22266 7.04094 3.12984 7.02641 2.33406 6.99703 L2.34859 6.40625 C2.34859 6.40625 2.99812 6.39156 3.20797 6.34281 C3.20797 6.34281 3.93562 6.16703 3.93562 5.34172 C3.93562 5.34172 3.93562 4.19922 2.71969 4.19922 C2.71969 4.19922 1.50391 4.19922 1.43063 5.56641 L0.737344 5.56641 C0.737344 5.56641 0.800781 3.63766 2.71484 3.63766 C2.71484 3.63766 3.59859 3.63766 4.12344 4.0625 C4.12344 4.0625 4.64844 4.48734 4.64844 5.31734 C4.64844 5.31734 4.64844 6.28422 3.62312 6.68453 C3.62312 6.68453 4.28219 6.89938 4.56047 7.26562 C4.56047 7.26562 4.83891 7.63187 4.83891 8.18844 C4.83891 8.18844 4.83891 9.09672 4.24078 9.60219 C4.24078 9.60219 3.64266 10.1075 2.68562 10.1075 Z" />
    <path
       id="GlAkhilan67"
       d="M3.4375 10.1123 C3.4375 10.1123 2.24609 10.1123 1.43312 9.31891 C1.43312 9.31891 0.620156 8.52531 0.620156 6.89938 C0.620156 6.89938 0.620156 5.46391 1.3525 4.54844 C1.3525 4.54844 2.085 3.63281 3.47656 3.63281 C3.47656 3.63281 5.46875 3.63281 5.85453 5.57609 L5.14656 5.57609 C5.14656 5.57609 4.83891 4.24313 3.37891 4.24313 C3.37891 4.24313 2.30953 4.24313 1.81875 5.01703 C1.81875 5.01703 1.32812 5.79094 1.32812 6.88469 C1.32812 6.88469 1.32812 8.19328 1.92625 8.84766 C1.92625 8.84766 2.52438 9.50188 3.45219 9.50188 C3.45219 9.50188 4.96578 9.50188 5.26859 7.72953 L5.99609 7.72953 C5.99609 7.72953 5.68359 10.1123 3.4375 10.1123 Z" />
    <path
       id="GlAkhilan48"
       d="M2.79781 10.1075 C2.79781 10.1075 0.7325 10.1075 0.7325 6.96281 C0.7325 6.96281 0.7325 3.63766 2.79781 3.63766 C2.79781 3.63766 4.86328 3.63766 4.86328 6.89453 C4.86328 6.89453 4.86328 10.1075 2.79781 10.1075 L2.79781 10.1075 Z M4.16016 6.875 C4.16016 6.875 4.16016 4.19922 2.79781 4.19922 C2.79781 4.19922 1.43562 4.19922 1.43562 6.875 C1.43562 6.875 1.43562 9.54594 2.77344 9.54594 C2.77344 9.54594 4.16016 9.54594 4.16016 6.875 Z" />
    <path
       id="GlAkhilan53"
       d="M2.63672 10.1123 C2.63672 10.1123 0.927813 10.1123 0.551719 8.49125 L1.24516 8.49125 C1.24516 8.49125 1.55766 9.54594 2.62703 9.55078 C2.62703 9.55078 3.335 9.55078 3.71578 9.11625 C3.71578 9.11625 4.09672 8.68156 4.09672 7.99313 C4.09672 7.99313 4.09672 7.21188 3.71578 6.79937 C3.71578 6.79937 3.335 6.38672 2.62703 6.38672 C2.62703 6.38672 1.92391 6.38672 1.40141 6.97266 L0.756875 6.97266 L1.23047 3.75 L4.47266 3.75 L4.47266 4.36031 L1.77734 4.36031 L1.49422 6.25969 C1.49422 6.25969 2.08984 5.82516 2.75391 5.82516 C2.75391 5.82516 3.70125 5.83 4.25781 6.36234 C4.25781 6.36234 4.81453 6.89453 4.81453 7.87109 C4.81453 7.87109 4.81453 8.84766 4.21875 9.48 C4.21875 9.48 3.62312 10.1123 2.63672 10.1123 Z" />
    <path
       id="GlAkhilan85"
       d="M5.41016 8.09563 C5.41016 8.09563 5.41016 9.06734 4.72656 9.58984 C4.72656 9.58984 4.04297 10.1123 2.98828 10.1123 C2.98828 10.1123 1.93359 10.1123 1.27188 9.60453 C1.27188 9.60453 0.610313 9.09672 0.610313 8.09563 L0.610313 3.75 L1.31844 3.75 L1.31844 8.09563 C1.31844 8.09563 1.31844 9.50188 3.00781 9.50188 C3.00781 9.50188 4.69734 9.50188 4.70219 8.09563 L4.70219 3.75 L5.41016 3.75 L5.41016 8.09563 Z" />
    <path
       id="GlAkhilan45"
       d="M0.532188 8.20312 L0.532188 7.58781 L2.57328 7.58781 L2.57328 8.20312 L0.532188 8.20312 Z" />
    <path
       id="GlAkhilan122"
       d="M0.57125 10 L0.57125 9.40422 L3.35938 6.04484 L0.761719 6.04484 L0.761719 5.50781 L4.09672 5.50781 L4.09672 6.07906 L1.28906 9.46281 L4.22359 9.46281 L4.22359 10 L0.57125 10 Z" />
    <clipPath
       id="Clip0">
      <path
         d="M0 0 L85 0 L85 86.736 L0 86.736 L0 0 Z"
         transform="translate(382.9, 557.55)"
         id="path56" />
    </clipPath>
  </defs>
  <g
     id="Background" />
  <g
     id="Type" />
  <g
     id="Elements" />
  <g
     id="g61"
     transform="matrix(1,0,0,1.0365497,-0.75069915,-2.9099919)">
    <path
       style="fill:#8be4f2;fill-rule:evenodd;stroke:none;fill-opacity:1"
       d="m 0,0 462.9,0 0,472.4 L 0,472.4 0,0 z"
       transform="translate(18,18)"
       id="path63"
       inkscape:connector-curvature="0" />
    <flowRoot
       xml:space="preserve"
       id="flowRoot3080"
       style="font-size:40px;font-style:normal;font-weight:normal;line-height:125%;letter-spacing:0px;word-spacing:0px;fill:#000000;fill-opacity:1;stroke:none;font-family:Sans"
       transform="matrix(0.80000004,0,0,0.7717913,0.7506854,2.8073829)"><flowRegion
         id="flowRegion3082"><rect
           id="rect3084"
           width="385.67172"
           height="170.78401"
           x="43.165195"
           y="690.64319" /></flowRegion><flowPara
         id="flowPara3086"
         style="font-size:24px">വിക്കിമീഡിയ ഫൗണ്ടേഷൻ</flowPara><flowPara
         id="flowPara3088"
         style="font-size:20px">149 ന്യൂ മോണ്ട്ഗൊമേറി തെരുവു്, മൂന്നാം നില</flowPara><flowPara
         style="font-size:20px"
         id="flowPara3092">സാൻ ഫ്രാൻസിസ്കോ, CA 94105, </flowPara><flowPara
         style="font-size:20px"
         id="flowPara3094">അമേരിക്കൻ ഐക്യനാടുകൾ</flowPara><flowPara
         style="font-size:18px;font-style:normal;font-variant:normal;font-weight:normal;font-stretch:normal;font-family:Ubuntu;-inkscape-font-specification:Ubuntu"
         id="flowPara3096"> http://wikimedia.org/</flowPara><flowPara
         id="flowPara3090"
         style="font-size:20px" /></flowRoot>  </g>
  <g
     id="g1565">
    <g
       id="Group32"
       clip-path="url(#Clip0)">
      <path
         style="fill:#990000; fill-rule:evenodd;stroke:none;"
         d="M21.4598 10.7012 C21.4598 16.6116 16.656 21.4024 10.7299 21.4024 C4.80394 21.4024 0 16.6116 0 10.7012 C0 4.7911 4.80394 0 10.7299 0 C16.656 0 21.4598 4.7911 21.4598 10.7012 Z"
         transform="translate(414.65, 557.55)"
         id="path1568" />
      <path
         style="fill:#006699; fill-rule:nonzero;stroke:none;"
         d="M53.8531 0.000235665 L47.7733 6.06355 C52.6911 10.378 55.7956 16.6998 55.7956 23.7455 C55.7956 36.7478 45.2269 47.2882 32.1897 47.2882 C19.1526 47.2882 8.58391 36.7478 8.58391 23.7455 C8.58391 16.6998 11.6884 10.378 16.6063 6.06355 L10.5265 0 C4.05923 5.87188 0 14.3358 0 23.7455 C0 41.476 14.4117 55.8492 32.1897 55.8492 C49.9679 55.8492 64.3795 41.476 64.3795 23.7455 C64.3795 14.3361 60.3201 5.87212 53.8531 0.000235665 Z"
         transform="translate(393.191, 565.911)"
         id="path1570" />
      <path
         style="fill:#339966; fill-rule:nonzero;stroke:none;"
         d="M17.1678 10.3647 L6.77556 0 C2.63097 3.53283 0 8.78118 0 14.645 C0 24.5593 7.51163 32.721 17.1678 33.7859 L17.1678 10.3647 Z M31.8525 0 L21.46 10.3645 L21.46 33.7859 C31.1164 32.7208 38.6278 24.5593 38.6278 14.645 C38.6278 8.78118 35.9969 3.53307 31.8525 0 Z"
         transform="translate(406.067, 575.011)"
         id="path1572" />
      <path
         style="fill:#484848; fill-rule:nonzero;stroke:none;"
         d="M85 9.01423 L82.2095 9.01423 L81.4727 7.18599 L77.5477 7.18599 L76.7978 9.01423 L74.0074 9.01423 L78.0041 0 L81.0164 0 L85 9.01423 Z M80.8468 5.61814 L79.5232 2.32597 L78.1868 5.61814 L80.8468 5.61814 Z M72.7892 9.01423 L70.0695 9.01423 L70.0695 0 L72.7892 0 L72.7892 9.01423 Z M68.3732 4.67287 C68.3732 5.59579 68.2046 6.33655 67.8677 6.89539 C67.5308 7.45471 67.134 7.90725 66.6776 8.25397 C66.0303 8.76073 65.1249 9.01423 63.9611 9.01423 L63.8245 9.01423 L59.089 9.01423 L59.089 0 L62.8409 0 C63.4055 0 63.8886 0.02925 64.2904 0.0882256 C64.6919 0.146726 65.0534 0.229482 65.3748 0.335781 C65.6962 0.442555 65.9697 0.561933 66.1955 0.694866 C66.4213 0.827323 66.623 0.969768 66.8014 1.12196 C67.1099 1.37356 67.3808 1.67058 67.6131 2.01302 C67.846 2.35546 68.0308 2.75212 68.1677 3.20299 C68.3048 3.65387 68.3732 4.14399 68.3732 4.67287 Z M65.6013 4.55587 C65.6013 3.82366 65.4611 3.25293 65.1809 2.84343 C64.9008 2.43393 64.5641 2.15974 64.1709 2.02134 C63.7777 1.88246 63.3771 1.81326 62.9687 1.81326 L61.8087 1.81326 L61.8087 7.14913 L62.9687 7.14913 C63.6811 7.14913 64.2978 6.98005 64.8195 6.64237 C65.3407 6.30421 65.6013 5.60887 65.6013 4.55587 Z M57.2578 9.01423 L50.45 9.01423 L50.45 0 L57.1469 0 L57.1469 1.81326 L53.1697 1.81326 L53.1697 3.46315 L56.9642 3.46315 L56.9642 5.27642 L53.1697 5.27642 L53.1697 7.20121 L57.2578 7.20121 L57.2578 9.01423 Z M48.1569 9.01423 L45.437 9.01423 L45.437 3.7899 L42.9775 6.81454 L42.7622 6.81454 L40.296 3.7899 L40.296 9.01423 L37.6507 9.01423 L37.6507 0 L40.12 0 L42.899 3.38135 L45.6909 0 L48.1572 0 L48.1572 9.01423 L48.1569 9.01423 Z M35.3647 9.01423 L32.6451 9.01423 L32.6451 0 L35.3647 0 L35.3647 9.01423 Z M31.4455 9.01423 L28.1204 9.01423 L24.6649 4.7932 L24.6649 9.01423 L21.9452 9.01423 L21.9452 0 L24.6649 0 L24.6649 4.03531 L27.938 0 L30.898 0 L27.5338 4.22104 L31.4455 9.01423 Z M19.6519 9.01423 L16.9322 9.01423 L16.9322 0 L19.6519 0 L19.6519 9.01423 L19.6519 9.01423 Z M15.6673 0 L11.7554 9.13313 L10.1777 9.13313 L7.83043 3.81962 L5.42455 9.13313 L3.83367 9.13313 L0 0 L2.82315 0 L4.70088 4.9939 L6.85234 0 L8.80184 0 L10.9142 4.9939 L12.8766 0 L15.6673 0 Z"
         transform="translate(382.9, 625.455)"
         id="path1574" />
      <path
         style="fill:#666666; fill-rule:nonzero;stroke:none;"
         d="M59.8446 5.47712 L58.3889 5.47712 L55.5751 2.46746 L55.5751 5.47712 L53.9582 5.47712 L53.9582 0.067061 L55.407 0.067061 L58.213 3.06935 L58.213 0.067061 L59.8449 0.067061 L59.8449 5.47712 L59.8446 5.47712 Z M53.05 2.77019 C53.05 3.2741 52.9336 3.73758 52.7002 4.16135 C52.4668 4.5844 52.1198 4.9209 51.6589 5.17012 C51.1973 5.41957 50.6362 5.54418 49.9746 5.54418 C49.3048 5.54418 48.738 5.41434 48.2747 5.15466 C47.8109 4.89498 47.4661 4.55325 47.2408 4.12996 C47.0155 3.70643 46.9027 3.25317 46.9027 2.76995 C46.9027 2.28459 47.015 1.83062 47.2389 1.40852 C47.4628 0.986415 47.8076 0.646354 48.2723 0.387622 C48.7375 0.129366 49.3048 0 49.9746 0 C50.4748 0 50.9209 0.0741951 51.3129 0.222348 C51.7052 0.370262 52.0273 0.57097 52.2803 0.823994 C52.5328 1.07726 52.7245 1.37213 52.8545 1.70839 C52.9846 2.04512 53.05 2.39898 53.05 2.77019 Z M51.3883 2.77019 C51.3883 2.56806 51.3585 2.38352 51.2984 2.21634 C51.2383 2.04916 51.1475 1.9041 51.0258 1.78092 C50.9042 1.65774 50.7562 1.5619 50.5816 1.49318 C50.4066 1.42445 50.2039 1.38997 49.9743 1.38997 C49.5356 1.38997 49.191 1.51696 48.94 1.77117 C48.6894 2.02515 48.5642 2.35831 48.5642 2.77019 C48.5642 3.18254 48.6903 3.51618 48.9423 3.77159 C49.1944 4.02699 49.538 4.15445 49.9743 4.15445 C50.2748 4.15445 50.5304 4.09571 50.7419 3.97776 C50.9534 3.85981 51.1141 3.6962 51.2238 3.48765 C51.3332 3.27909 51.3883 3.03986 51.3883 2.77019 Z M45.8874 5.47712 L44.2555 5.47712 L44.2555 0.067061 L45.8874 0.067061 L45.8874 5.47712 Z M43.2855 1.3826 L41.2988 1.3826 L41.2988 5.47736 L39.667 5.47736 L39.667 1.3826 L37.6798 1.3826 L37.6798 0.0672988 L43.2855 0.0672988 L43.2855 1.3826 Z M38.1705 5.47712 L36.4966 5.47712 L36.0546 4.38465 L33.6999 4.38465 L33.25 5.47712 L31.5759 5.47712 L33.9737 0.067061 L35.7806 0.067061 L38.1705 5.47712 Z M35.679 3.44104 L34.8852 1.4644 L34.0836 3.44104 L35.679 3.44104 Z M31.5494 2.87268 C31.5494 3.42677 31.4483 3.8717 31.2464 4.20701 C31.0442 4.54279 30.8062 4.8146 30.533 5.02268 C30.145 5.32564 29.6021 5.47712 28.9044 5.47712 L28.8224 5.47712 L25.9833 5.47712 L25.9833 0.067061 L28.2327 0.067061 C28.5711 0.067061 28.8608 0.0846585 29.1016 0.119854 C29.3424 0.154811 29.5592 0.204274 29.7518 0.268006 C29.9442 0.331976 30.1085 0.403317 30.2437 0.482744 C30.3792 0.562171 30.5003 0.647305 30.6069 0.738384 C30.7919 0.88939 30.9543 1.06798 31.0935 1.27392 C31.2333 1.47962 31.3439 1.7179 31.4262 1.98924 C31.5082 2.2601 31.5494 2.5545 31.5494 2.87268 Z M29.8877 2.80206 C29.8877 2.36164 29.8036 2.01825 29.6357 1.77188 C29.4678 1.52552 29.2661 1.36072 29.0305 1.27725 C28.795 1.19378 28.5548 1.15216 28.3102 1.15216 L27.6151 1.15216 L27.6151 4.36253 L28.3102 4.36253 C28.7373 4.36253 29.1068 4.26099 29.4192 4.05766 C29.7316 3.85434 29.8877 3.43557 29.8877 2.80206 Z M24.6134 5.47712 L23.1577 5.47712 L20.3439 2.46746 L20.3439 5.47712 L18.727 5.47712 L18.727 0.067061 L20.176 0.067061 L22.9817 3.06935 L22.9817 0.067061 L24.6136 0.067061 L24.6136 5.47712 L24.6134 5.47712 Z M17.4432 3.05151 C17.4432 3.51428 17.3564 3.9088 17.1833 4.23554 C17.01 4.56181 16.7808 4.81983 16.4954 5.00984 C16.21 5.19984 15.9026 5.33634 15.5729 5.41957 C15.2431 5.50281 14.9143 5.54418 14.586 5.54418 C14.1272 5.54418 13.6811 5.46642 13.2471 5.31042 C12.8132 5.15442 12.4502 4.88927 12.1584 4.51425 C11.8665 4.13995 11.7206 3.65221 11.7206 3.05175 L11.7206 0.0672988 L13.3525 0.0672988 L13.3525 2.63321 C13.3525 2.98992 13.404 3.2848 13.5068 3.51809 C13.6095 3.75137 13.7531 3.92164 13.9369 4.0296 C14.1208 4.13757 14.3375 4.19179 14.5876 4.19179 C14.8273 4.19179 15.0397 4.13852 15.2248 4.03174 C15.4098 3.92497 15.5538 3.75589 15.6568 3.52403 C15.7598 3.29217 15.8113 2.99777 15.8113 2.64106 L15.8113 0.0672988 L17.4432 0.0672988 L17.4432 3.05151 Z M10.7735 2.77019 C10.7735 3.2741 10.6569 3.73758 10.4237 4.16135 C10.1905 4.5844 9.84336 4.9209 9.38221 5.17012 C8.92106 5.41957 8.35953 5.54418 7.69786 5.54418 C7.02831 5.54418 6.46154 5.41434 5.99801 5.15466 C5.53424 4.89498 5.18969 4.55325 4.96436 4.12996 C4.73903 3.70643 4.62649 3.25317 4.62649 2.76995 C4.62649 2.28459 4.73856 1.83062 4.96245 1.40852 C5.18635 0.986415 5.53114 0.646354 5.9961 0.387622 C6.46106 0.129366 7.02855 0 7.6981 0 C8.19835 0 8.64447 0.0741951 9.03647 0.222348 C9.42871 0.370262 9.75108 0.57097 10.0038 0.823994 C10.2566 1.07726 10.448 1.37213 10.5782 1.70839 C10.7084 2.04512 10.7735 2.39898 10.7735 2.77019 Z M9.11206 2.77019 C9.11206 2.56806 9.08201 2.38352 9.02193 2.21634 C8.96184 2.04916 8.87099 1.9041 8.74962 1.78092 C8.62826 1.65774 8.47995 1.5619 8.30517 1.49318 C8.13015 1.42445 7.92772 1.38997 7.6981 1.38997 C7.25936 1.38997 6.91458 1.51696 6.66397 1.77117 C6.41337 2.02538 6.28795 2.35831 6.28795 2.77019 C6.28795 3.18254 6.41385 3.51618 6.66588 3.77159 C6.91791 4.02699 7.26199 4.15445 7.6981 4.15445 C7.99829 4.15445 8.25438 4.09571 8.46588 3.97776 C8.67738 3.85981 8.83809 3.6962 8.94777 3.48765 C9.05745 3.27909 9.11206 3.03986 9.11206 2.77019 Z M3.88088 3.28504 L1.6319 3.28504 L1.6319 5.47736 L0 5.47736 L0 0.0672988 L3.88064 0.0672988 L3.88064 1.15216 L1.63166 1.15216 L1.63166 2.19993 L3.88064 2.19993 L3.88064 3.28504 L3.88088 3.28504 Z"
         transform="translate(395.459, 638.742)"
         id="path1576" />
    </g>
  </g>
  <flowRoot
     xml:space="preserve"
     id="flowRoot4557"
     style="font-size:40px;font-style:normal;font-weight:normal;line-height:125%;letter-spacing:0px;word-spacing:0px;fill:#000000;fill-opacity:1;stroke:none;font-family:Sans"
     transform="matrix(0.83245389,0,0,0.8066934,-9.5659051,4.9983843)"><flowRegion
       id="flowRegion4559"><rect
         id="rect4561"
         width="481.38556"
         height="604.31226"
         x="73.193153"
         y="46.918697" /></flowRegion><flowPara
       id="flowPara4563"
       style="font-size:32px;font-style:normal;font-variant:normal;font-weight:normal;font-stretch:normal;text-align:center;line-height:60.00000238%;letter-spacing:-0.31999999px;word-spacing:-0.01px;text-anchor:middle;font-family:Rachana;-inkscape-font-specification:Rachana">വിക്കിപീഡിയ</flowPara><flowPara
       style="font-size:18px;font-style:normal;font-variant:normal;font-weight:normal;font-stretch:normal;text-align:center;line-height:81.99999928%;letter-spacing:-0.31999999px;word-spacing:-0.01px;text-anchor:middle;font-family:Rachana;-inkscape-font-specification:Rachana"
       id="flowPara4615">സ്വതന്ത്ര വിജ്ഞാനകോശം</flowPara><flowPara
       id="flowPara4565"
       style="font-size:16px;font-style:normal;font-variant:normal;font-weight:normal;font-stretch:normal;text-align:center;line-height:81.99999928%;letter-spacing:-0.31999999px;word-spacing:-0.01px;text-anchor:middle;font-family:Rachana;-inkscape-font-specification:Rachana">http://ml.wikipedia.org</flowPara><flowPara
       style="font-size:16px;font-style:normal;font-variant:normal;font-weight:normal;font-stretch:normal;text-align:center;line-height:81.99999928%;letter-spacing:-0.31999999px;word-spacing:-0.01px;text-anchor:middle;font-family:Rachana;-inkscape-font-specification:Rachana"
       id="flowPara4635" /><flowPara
       style="font-size:25px;font-style:normal;font-variant:normal;font-weight:normal;font-stretch:normal;text-align:center;text-anchor:middle;font-family:Rachana;-inkscape-font-specification:Rachana"
       id="flowPara4579" /><flowPara
       style="font-size:32px;font-style:normal;font-variant:normal;font-weight:normal;font-stretch:normal;text-align:center;line-height:69.99999881%;text-anchor:middle;font-family:Rachana;-inkscape-font-specification:Rachana"
       id="flowPara4567">വിക്കിഗ്രന്ഥശാല</flowPara><flowPara
       style="font-size:18px;font-style:normal;font-variant:normal;font-weight:normal;font-stretch:normal;text-align:center;line-height:69.99999881%;text-anchor:middle;font-family:Rachana;-inkscape-font-specification:Rachana"
       id="flowPara4617">ഓൺലൈൻ പുസ്തകാലയം</flowPara><flowPara
       style="font-size:16px;font-style:normal;font-variant:normal;font-weight:normal;font-stretch:normal;text-align:center;line-height:101.99999809%;text-anchor:middle;font-family:Rachana;-inkscape-font-specification:Rachana"
       id="flowPara4581">http://ml.wikisource.org</flowPara><flowPara
       style="font-size:16px;font-style:normal;font-variant:normal;font-weight:normal;font-stretch:normal;text-align:center;line-height:101.99999809%;text-anchor:middle;font-family:Rachana;-inkscape-font-specification:Rachana"
       id="flowPara4637" /><flowPara
       style="font-size:20px;font-style:normal;font-variant:normal;font-weight:normal;font-stretch:normal;text-align:center;line-height:104.99999523%;text-anchor:middle;font-family:Rachana;-inkscape-font-specification:Rachana"
       id="flowPara4593" /><flowPara
       style="font-size:32px;font-style:normal;font-variant:normal;font-weight:normal;font-stretch:normal;text-align:center;line-height:69.99999881%;text-anchor:middle;font-family:Rachana;-inkscape-font-specification:Rachana"
       id="flowPara4569">വിക്കിചൊല്ലുകൾ</flowPara><flowPara
       style="font-size:18px;font-style:normal;font-variant:normal;font-weight:normal;font-stretch:normal;text-align:center;line-height:100%;text-anchor:middle;font-family:Rachana;-inkscape-font-specification:Rachana"
       id="flowPara4583">ഉദ്ധരണികളുടേയും പഴഞ്ചൊല്ലുകളുടേയും ശേഖരം</flowPara><flowPara
       style="font-size:16px;font-style:normal;font-variant:normal;font-weight:normal;font-stretch:normal;text-align:center;line-height:100%;text-anchor:middle;font-family:Rachana;-inkscape-font-specification:Rachana"
       id="flowPara4661">http://ml.wikiquote.org</flowPara><flowPara
       style="font-size:16px;font-style:normal;font-variant:normal;font-weight:normal;font-stretch:normal;text-align:center;line-height:100%;text-anchor:middle;font-family:Rachana;-inkscape-font-specification:Rachana"
       id="flowPara4639" /><flowPara
       style="font-size:20px;font-style:normal;font-variant:normal;font-weight:normal;font-stretch:normal;text-align:center;line-height:100%;text-anchor:middle;font-family:Rachana;-inkscape-font-specification:Rachana"
       id="flowPara4599"> </flowPara><flowPara
       style="font-size:32px;font-style:normal;font-variant:normal;font-weight:normal;font-stretch:normal;text-align:center;line-height:60.00000238%;text-anchor:middle;font-family:Rachana;-inkscape-font-specification:Rachana"
       id="flowPara4571">വിക്കിനിഘണ്ടു</flowPara><flowPara
       style="font-size:18px;font-style:normal;font-variant:normal;font-weight:normal;font-stretch:normal;text-align:center;line-height:100%;text-anchor:middle;font-family:Rachana;-inkscape-font-specification:Rachana"
       id="flowPara4585">സ്വതന്ത്ര ബഹുഭാഷാനിഘണ്ടു</flowPara><flowPara
       style="font-size:16px;font-style:normal;font-variant:normal;font-weight:normal;font-stretch:normal;text-align:center;line-height:100%;text-anchor:middle;font-family:Rachana;-inkscape-font-specification:Rachana"
       id="flowPara4657">http://ml.wiktionary.org</flowPara><flowPara
       style="font-size:16px;font-style:normal;font-variant:normal;font-weight:normal;font-stretch:normal;text-align:center;line-height:100%;text-anchor:middle;font-family:Rachana;-inkscape-font-specification:Rachana"
       id="flowPara4641" /><flowPara
       style="font-size:24px;font-style:normal;font-variant:normal;font-weight:normal;font-stretch:normal;text-align:center;line-height:100%;text-anchor:middle;font-family:Rachana;-inkscape-font-specification:Rachana"
       id="flowPara4601" /><flowPara
       style="font-size:32px;font-style:normal;font-variant:normal;font-weight:normal;font-stretch:normal;text-align:center;line-height:60.00000238%;text-anchor:middle;font-family:Rachana;-inkscape-font-specification:Rachana"
       id="flowPara4573">വിക്കിപാഠശാല</flowPara><flowPara
       style="font-size:18px;font-style:normal;font-variant:normal;font-weight:normal;font-stretch:normal;text-align:center;line-height:100%;text-anchor:middle;font-family:Rachana;-inkscape-font-specification:Rachana"
       id="flowPara4625">പഠനോപകരണങ്ങളുടെ ശേഖരം</flowPara><flowPara
       style="font-size:16px;font-style:normal;font-variant:normal;font-weight:normal;font-stretch:normal;text-align:center;line-height:100%;text-anchor:middle;font-family:Rachana;-inkscape-font-specification:Rachana"
       id="flowPara4587">http://ml.wikibooks.org</flowPara><flowPara
       style="font-size:16px;font-style:normal;font-variant:normal;font-weight:normal;font-stretch:normal;text-align:center;line-height:100%;text-anchor:middle;font-family:Rachana;-inkscape-font-specification:Rachana"
       id="flowPara4643" /><flowPara
       style="font-size:24px;font-style:normal;font-variant:normal;font-weight:normal;font-stretch:normal;text-align:center;line-height:100%;text-anchor:middle;font-family:Rachana;-inkscape-font-specification:Rachana"
       id="flowPara4603" /><flowPara
       style="font-size:32px;font-style:normal;font-variant:normal;font-weight:normal;font-stretch:normal;text-align:center;line-height:60.00000238%;text-anchor:middle;font-family:Rachana;-inkscape-font-specification:Rachana"
       id="flowPara4577">വിക്കിമീഡിയ കോമൺസ്</flowPara><flowPara
       style="font-size:18px;font-style:normal;font-variant:normal;font-weight:normal;font-stretch:normal;text-align:center;line-height:100%;text-anchor:middle;font-family:Rachana;-inkscape-font-specification:Rachana"
       id="flowPara4589">സ്വതന്ത്ര പ്രമാണങ്ങളുടെ സഞ്ചയം</flowPara><flowPara
       style="font-size:16px;font-style:normal;font-variant:normal;font-weight:normal;font-stretch:normal;text-align:center;line-height:100%;text-anchor:middle;font-family:Rachana;-inkscape-font-specification:Rachana"
       id="flowPara4653">http://commons.wikimedia.org</flowPara><flowPara
       style="font-size:16px;font-style:normal;font-variant:normal;font-weight:normal;font-stretch:normal;text-align:center;line-height:100%;text-anchor:middle;font-family:Rachana;-inkscape-font-specification:Rachana"
       id="flowPara4645" /><flowPara
       style="font-size:24px;font-style:normal;font-variant:normal;font-weight:normal;font-stretch:normal;text-align:center;line-height:100%;text-anchor:middle;font-family:Rachana;-inkscape-font-specification:Rachana"
       id="flowPara4605" /><flowPara
       style="font-size:35px;font-style:normal;font-variant:normal;font-weight:normal;font-stretch:normal;text-align:center;line-height:60.00000238%;text-anchor:middle;font-family:Rachana;-inkscape-font-specification:Rachana"
       id="flowPara4575">വിക്കിവോയേജ്</flowPara><flowPara
       style="font-size:18px;font-style:normal;font-variant:normal;font-weight:normal;font-stretch:normal;text-align:center;line-height:50%;text-anchor:middle;font-family:Rachana;-inkscape-font-specification:Rachana"
       id="flowPara4629">ഏകോപിത യാത്രാസഹായി</flowPara><flowPara
       style="font-size:18px;font-style:normal;font-variant:normal;font-weight:normal;font-stretch:normal;text-align:center;line-height:50%;text-anchor:middle;font-family:Rachana;-inkscape-font-specification:Rachana"
       id="flowPara4631" /><flowPara
       style="font-size:16px;font-style:normal;font-variant:normal;font-weight:normal;font-stretch:normal;text-align:center;line-height:50%;text-anchor:middle;font-family:Rachana;-inkscape-font-specification:Rachana"
       id="flowPara4633">http://incubator.wikimedia.org/wiki/Wy/ml</flowPara></flowRoot></svg>
